<svg width="158" height="43" viewBox="0 0 158 43" fill="none" xmlns="http://www.w3.org/2000/svg">
<path d="M22.3422 22.2222C23.6372 21.1334 23.4158 19.6818 22.7143 19.2863C22.5165 19.0925 22.2134 18.961 21.8422 18.9307C21.8014 18.9272 21.7488 18.9263 21.6834 18.9263C20.9121 18.9263 19.668 20.1947 19.599 21.0276C19.501 22.16 20.1671 22.5102 20.9802 23.3128C21.746 24.0684 22.8468 24.5706 24.1363 24.6755C24.2887 24.6879 24.4575 24.6941 24.6408 24.6941C26.1962 24.6941 27.6463 24.1333 28.7316 23.2248C29.7679 22.3591 30.4621 21.1867 30.5682 19.9129C30.5837 19.7236 30.5918 19.5254 30.5918 19.321C30.5918 17.4383 29.826 15.7442 28.5437 14.4784C27.2089 13.1629 25.3096 12.2892 23.1036 12.1096C22.8368 12.0874 22.5537 12.0767 22.2533 12.0767C19.6444 12.0767 17.2097 13.0216 15.383 14.5487C13.6054 16.0348 12.4846 19.2472 12.2995 21.4667C12.2768 21.7431 12.266 22.0267 12.266 22.3173C12.266 25.0337 13.2995 26.295 15.1507 28.1207C18.3422 30.3624 21.7424 31.805 22.8749 31.4966C23.2579 31.5277 23.6562 31.5437 24.0709 31.5437C27.7316 31.5437 29.5283 30.6131 32.0973 28.4656C34.6155 26.3599 37.9286 23.0773 38.1917 19.9129C38.1291 17.1406 38.1826 17.9939 38.1826 17.6161C38.1826 14.066 36.7933 12.0581 34.3732 9.67058C31.9022 7.23332 28.4067 5.61736 24.364 5.28848C23.8686 5.2476 23.3541 5.22716 22.8232 5.22716C18.109 5.22716 13.7052 6.93822 10.3948 9.70525C7.13525 12.4314 4.9474 16.1717 4.60529 20.2827C4.56809 20.7334 4.54994 21.1902 4.54994 21.6507C4.54994 28.8274 10.3512 37.0769 17.8903 37.692C18.4992 37.7418 22.8531 38.3933 23.5011 38.3933C29.267 38.3933 34.6563 36.2982 38.7071 32.9117C40.3605 31.5295 41.7897 29.934 42.9268 28.1803C43.2761 27.8336 43.5257 27.0639 43.6573 27.0621C43.8152 27.0594 43.8052 27.9109 43.601 28.558C42.091 32.8761 41.0502 35.8609 37.6572 38.2671C34.3115 40.6386 28.6399 42.4607 23.5011 42.8989C22.747 42.8989 21.9929 42.8678 21.2406 42.8065C8.63617 40.3915 0 37.9071 0 21.6507C0 21.0862 0.316697 18.4374 0.366607 17.8437C0.811255 12.4972 3.30946 9.74525 7.46284 6.27335C11.5663 2.84323 14.0926 0.900175 19.9048 0.900175C20.5419 0.900175 24.0991 0.748179 24.7379 0.799734C29.8731 1.21839 35.7779 3.91075 38.9921 7.08133C42.258 10.3026 42.7861 14.0162 42.7861 18.8036C42.7861 19.2765 42.7652 19.7672 42.7235 20.2738V20.2827C42.3578 24.6835 40.0638 28.6487 36.6518 31.5002C33.2897 34.3107 28.0192 36.596 23.2597 36.596C22.7388 36.596 22.2152 36.5738 21.6907 36.5311C17.4729 36.1871 13.2787 33.4192 10.6325 30.8095C7.93561 28.1491 7.23961 24.0933 7.23961 20.1396C7.23961 19.7458 7.25685 19.3396 7.29133 18.9192C7.57899 15.4642 9.78046 13.3496 12.4502 11.1168C15.0718 8.92572 18.5455 7.5702 22.2533 7.5702C22.6508 7.5702 23.0564 7.58797 23.4675 7.62086H23.4766C26.776 7.89018 29.6653 9.24393 31.7425 11.2928C34.2017 13.7194 35.4176 16.3442 35.13 19.8027C34.9213 22.312 33.5937 25.0443 31.6644 26.6567C29.7851 28.2283 27.2951 29.1998 24.6408 29.1998C24.3595 29.1998 24.07 29.1873 23.7715 29.1633H23.7624C21.3804 28.9696 18.7823 28.9802 17.2742 27.4923C15.7143 25.9528 14.7632 22.8684 14.7632 20.5823C14.795 19.1636 15.4747 17.2552 16.6117 16.1762C18.1208 14.7451 20.3586 14.3567 22.207 14.4429C23.4593 14.4429 25.0355 15.2349 25.913 16.1006C29.3396 19.7361 24.3114 23.4977 22.3422 22.2222Z" fill="#21966C"/>
<path d="M62.5342 22.1437V21.2028C62.5342 18.7282 61.3496 17.4897 58.9805 17.4897C57.8629 17.4897 56.9846 17.9547 56.3498 18.889C55.7799 19.6889 55.4938 20.6673 55.4938 21.8198C55.4938 22.9921 55.7687 23.9859 56.3163 24.8145C56.9533 25.7488 57.8406 26.2138 58.9805 26.2138C60.1427 26.2138 61.0412 25.8127 61.6782 25.0084C62.2482 24.2724 62.5342 23.316 62.5342 22.1437ZM62.5342 28.4834H62.4024C61.2826 30.1273 59.7158 30.9493 57.6975 30.9493C56.6672 30.9493 55.6793 30.7223 54.7361 30.2684C53.2028 29.5103 52.0071 28.3336 51.1511 26.7338C50.3844 25.2618 50 23.6312 50 21.8352C50 19.3915 50.7465 17.2628 52.2373 15.447C53.8153 13.5013 55.8223 12.5273 58.2563 12.5273C60.0332 12.5273 61.4592 13.1553 62.5342 14.4091C63.0818 13.3051 63.8596 12.7542 64.8677 12.7542C66.6445 12.7542 67.5341 14.0191 67.5341 16.5488V27.0886C67.5341 28.7104 67.4558 30.1053 67.3039 31.2732C66.9954 33.5869 65.9874 35.3586 64.2776 36.5926C62.6974 37.7165 60.6702 38.2784 58.1915 38.2784C55.7352 38.2784 53.822 37.8949 52.4519 37.1281C51.0795 36.359 50.3956 35.4666 50.3956 34.4508C50.3956 33.7809 50.6079 33.23 51.0371 32.7981C51.464 32.3662 52.0183 32.148 52.6977 32.148C53.0933 32.148 53.8711 32.3816 55.0334 32.8465C56.1956 33.3115 57.3131 33.5429 58.3882 33.5429C59.7494 33.5429 60.7797 33.144 61.4815 32.3441C62.1833 31.5442 62.5342 30.4733 62.5342 29.1335V28.4834ZM76.6464 27.1172C76.6464 29.6734 75.768 30.9493 74.0135 30.9493C72.2366 30.9493 71.3493 29.6734 71.3493 27.1172V16.5554C71.3493 14.0191 72.2366 12.7542 74.0135 12.7542C75.768 12.7542 76.6464 14.0191 76.6464 16.5554V27.1172ZM78.4881 15.3501C78.4881 14.6361 78.734 14.0257 79.2279 13.5167C79.7219 13.0077 80.3298 12.7542 81.054 12.7542C82.3257 12.7542 83.2354 13.6092 83.783 15.317L86.6774 24.431L89.5718 14.96C90.0121 13.4902 90.8548 12.7542 92.1064 12.7542C92.8954 12.7542 93.5033 12.9989 93.9324 13.4836C94.3593 13.9706 94.5739 14.6031 94.5739 15.3809C94.5739 15.793 94.4309 16.3659 94.1448 17.0997L89.6724 28.5495C89.3215 29.4354 88.9706 30.0524 88.6197 30.3984C88.1369 30.8721 87.4686 31.1101 86.6126 31.1101C85.7342 31.1101 85.0436 30.8523 84.5407 30.3322C84.1674 29.9863 83.7942 29.3384 83.4209 28.3865L78.7832 16.7758C78.5865 16.28 78.4881 15.804 78.4881 15.3501ZM107.6 22.1437V21.2028C107.6 18.7282 106.415 17.4897 104.046 17.4897C102.929 17.4897 102.05 17.9547 101.415 18.889C100.845 19.6889 100.559 20.6673 100.559 21.8198C100.559 22.9921 100.834 23.9859 101.382 24.8145C102.019 25.7488 102.906 26.2138 104.046 26.2138C105.208 26.2138 106.109 25.8127 106.744 25.0084C107.314 24.2724 107.6 23.316 107.6 22.1437ZM107.6 28.4834H107.468C106.348 30.1273 104.781 30.9493 102.763 30.9493C101.733 30.9493 100.747 30.7223 99.8039 30.2684C98.2684 29.5103 97.0727 28.3336 96.2167 26.7338C95.45 25.2618 95.0656 23.6312 95.0656 21.8352C95.0656 19.3915 95.8121 17.2628 97.3029 15.447C98.8831 13.5013 100.888 12.5273 103.322 12.5273C105.099 12.5273 106.525 13.1553 107.6 14.4091C108.147 13.3051 108.925 12.7542 109.936 12.7542C111.71 12.7542 112.6 14.0191 112.6 16.5488V27.0886C112.6 28.7104 112.521 30.1053 112.369 31.2732C112.061 33.5869 111.053 35.3586 109.343 36.5926C107.763 37.7165 105.736 38.2784 103.257 38.2784C100.801 38.2784 98.8876 37.8949 97.5175 37.1281C96.1474 36.359 95.4612 35.4666 95.4612 34.4508C95.4612 33.7809 95.6758 33.23 96.1027 32.7981C96.5296 32.3662 97.0839 32.148 97.7633 32.148C98.1589 32.148 98.9367 32.3816 100.099 32.8465C101.261 33.3115 102.381 33.5429 103.454 33.5429C104.815 33.5429 105.845 33.144 106.547 32.3441C107.249 31.5442 107.6 30.4733 107.6 29.1335V28.4834ZM121.712 27.1172C121.712 29.6734 120.834 30.9493 119.079 30.9493C117.302 30.9493 116.415 29.6734 116.415 27.1172V16.5554C116.415 14.0191 117.302 12.7542 119.079 12.7542C120.834 12.7542 121.712 14.0191 121.712 16.5554V27.1172ZM123.554 15.3501C123.554 14.6361 123.8 14.0257 124.294 13.5167C124.788 13.0077 125.395 12.7542 126.12 12.7542C127.391 12.7542 128.301 13.6092 128.849 15.317L131.743 24.431L134.64 14.96C135.078 13.4902 135.923 12.7542 137.172 12.7542C137.961 12.7542 138.569 12.9989 138.998 13.4836C139.425 13.9706 139.639 14.6031 139.639 15.3809C139.639 15.793 139.496 16.3659 139.21 17.0997L134.738 28.5495C134.387 29.4354 134.036 30.0524 133.685 30.3984C133.202 30.8721 132.534 31.1101 131.678 31.1101C130.802 31.1101 130.111 30.8523 129.606 30.3322C129.233 29.9863 128.86 29.3384 128.487 28.3865L123.849 16.7758C123.652 16.28 123.554 15.804 123.554 15.3501ZM145.625 23.294C145.735 24.3121 146.164 25.0899 146.908 25.6298C147.654 26.1697 148.564 26.4407 149.639 26.4407C150.538 26.4407 151.624 26.1543 152.896 25.5813C154.167 25.0084 154.956 24.7219 155.265 24.7219C156.668 24.7219 157.37 25.4028 157.37 26.7646C157.37 27.2847 157.171 27.8025 156.778 28.3226C156.076 29.2723 154.956 29.9973 153.421 30.4953C152.129 30.9272 150.779 31.1432 149.375 31.1432C146.745 31.1432 144.552 30.2507 142.798 28.468C141.043 26.6853 140.165 24.4839 140.165 21.8683C140.165 19.2746 141.003 17.0579 142.681 15.2201C144.36 13.3823 146.503 12.4634 149.112 12.4634C150.406 12.4634 151.579 12.7014 152.632 13.1773C154.145 13.8693 155.386 14.8961 156.349 16.2579C157.314 17.6198 157.797 19.1006 157.797 20.7004C157.797 21.5664 157.48 22.2253 156.843 22.6792C156.295 23.0891 155.571 23.294 154.673 23.294H145.625ZM145.56 19.8564H152.567C152.5 18.9485 152.145 18.2037 151.497 17.6198C150.851 17.0358 150.066 16.7449 149.145 16.7449C148.202 16.7449 147.413 17.0314 146.776 17.6043C146.141 18.1773 145.735 18.9265 145.56 19.8564Z" fill="#6C6C6C"/>
<path d="M76.2199 4.28366C75.6052 3.66446 74.8676 3.73056 73.9624 3.73056C73.055 3.73056 72.0783 3.88923 71.439 4.50843C70.7998 5.12764 70.6836 6.03331 70.6836 6.92797C70.6836 7.84466 70.9988 8.6071 71.6246 9.21529C72.2526 9.82127 73.0327 10.1254 73.9624 10.1254C74.8676 10.1254 75.7058 9.44005 76.3227 8.82304C76.9373 8.20384 77.1698 7.82262 77.1698 6.92797C77.1698 6.03331 76.8367 4.90287 76.2199 4.28366Z" fill="#21966C"/>
<path d="M119.991 5.36602C120.653 5.56213 120.877 6.08879 121.21 6.7102C121.54 7.33161 121.786 8.05879 121.585 8.72428C121.384 9.38976 120.787 9.80183 120.157 10.1302C119.511 10.4673 118.858 10.5312 118.199 10.3241C117.542 10.1169 117.041 9.69385 116.699 9.05702C116.368 8.43561 116.543 7.60926 116.753 6.96141C116.963 6.31135 117.148 6.01386 117.779 5.68552C118.409 5.35719 119.328 5.1699 119.991 5.36602Z" fill="#21966C"/>
</svg>
